<?xml version="1.0" encoding="UTF-8"?>
<svg width="98px" height="116px" viewBox="0 0 98 116" version="1.1" xmlns="http://www.w3.org/2000/svg" xmlns:xlink="http://www.w3.org/1999/xlink">
    <!-- Generator: Sketch 43.2 (39069) - http://www.bohemiancoding.com/sketch -->
    <title>Group</title>
    <desc>Created with Sketch.</desc>
    <defs></defs>
    <g id="Page-1" stroke="none" stroke-width="1" fill="none" fill-rule="evenodd">
        <g id="Group" transform="translate(-1.000000, -2.000000)" fill="#9B9B9B">
            <path d="M35.7890625,80.390625 C34.9375518,89.5516573 34.9651829,98.8286289 35.7890625,107.992188 C36.8464169,119.752558 53.2246873,119.260409 60.3359375,113.785156 C71.3318205,105.31896 110.899264,76.2579751 95.3046875,61.2460938 C79.7101111,46.2342124 79.8005898,46.1437273 70.8062696,46.1437273 C61.8119493,46.1437273 61.807548,46.6787309 59.703125,47.2109375 C48.8295262,49.9608605 36.541698,72.2933478 35.7890625,80.390625 Z" id="Path"></path>
            <path d="M67.9375,34.0195313 C81.7130559,43.7517064 84.0186409,20.9228117 75.9609375,13.7890625 C73.4929604,11.6040814 63.5515632,2.42161418 56.5664062,3.58203125 C47.9635074,5.0111975 47.0784025,11.3845858 50.8515625,16.9335938 C56.546875,22.6289063 61.3591811,29.3720708 67.9375,34.0195313 Z" id="Path-2" transform="translate(64.663506, 19.939081) rotate(10.000000) translate(-64.663506, -19.939081) "></path>
            <path d="M38.7070313,28.0742187 C31.4538001,10.3598811 7.12092559,27.271139 19.1015625,35.5820312 C23.9107952,40.9680537 52.7191367,62.295542 38.7070313,28.0742187 Z" id="Path-3"></path>
            <path d="M17.5898437,71.9257813 C26.2249507,75.1882788 31.6242297,70.7619102 29.7148437,62.9375 C27.1366714,52.3724916 18.780571,46.9019917 12.0390625,43.6328125 C6.31096773,40.855071 -5.66735284,51.3401632 5.765625,63.7265625 C8.50238395,66.4757933 9.4901085,68.8655567 17.5898437,71.9257813 Z" id="Path-4"></path>
            <path d="M5.41796875,100.183594 C17.44632,128.236655 48.8244982,96.6109842 7.29746222,78.101488 C7.29746222,78.101488 3.52515885,76.6050038 2.33801287,79.129942 C1.1508669,81.6548802 3.68167826,96.1341391 5.41796875,100.183594 Z" id="Path-5"></path>
        </g>
    </g>
</svg>